<svg id="レイヤー_1" data-name="レイヤー 1" xmlns="http://www.w3.org/2000/svg" viewBox="0 0 1200 414.9"><title>アートボード 1</title><path d="M175.06,64.42c-.32,1.2-2.16,2.12-4.45,2.26s-3.49.13-6,3.18c-32.23,38.52-73.16,45.56-104.76,47H57.68c-2.52,0-3.78-.26-3.67-.66s2-1.06,5.83-1.46C121.39,108.12,153,73.85,161.92,55c.31-.67.49-1.33,1.15-1.33C165.33,53.66,175.77,61.76,175.06,64.42ZM122.26,30c-.36,1.33-2.33,2.26-5.16,2.39-1.76.13-1.93.26-3.52,2.26C96.51,55.25,72.07,68.14,68.88,68.14c-.13,0-.09-.14-.09-.14.07-.26.78-.92,2.42-2.12,11.64-8.24,34-32.54,38.05-43.83.38-.93.39-1.46.92-1.46C110.44,20.59,123.22,26.43,122.26,30Zm26-16.6c-2.13,6-4.86,15.67-7.39,25.1-1.74,6.51-3.35,13-4.54,17.93,0,0-2.2,9.69-2.73,11.69-3.06,11.42-15.45,15.54-21.43,15.54a2.16,2.16,0,0,1-2.39-2c-.85-4.25-13.57-9.83-13.35-10.63,0-.13.17-.13.3-.13a4.3,4.3,0,0,1,1.16.13,84.4,84.4,0,0,0,14.81,1.73c7.3,0,9.5-2.26,10.81-6.65,2.37-7.83,5.25-18.59,7.81-28.15,4.38-16.34,7.92-30.55,8.06-36.53a5.56,5.56,0,0,1,0-1.06.45.45,0,0,1,.47-.27S157,1.46,156,5.31c-.21.8-1.29,1.86-3.14,2.79C149.58,9.83,149.49,9.7,148.22,13.42ZM188,51c-1,3.86-4.34,6.78-7.39,6.78-2.26,0-4.45-1.73-5.44-6-2-9-8.7-20-14.92-27.09-.62-.67-.87-1.2-.8-1.47s.17-.13.3-.13C164.62,23.11,191.3,38.52,188,51Z"/><path d="M319.45,42.11c-.22.79-1.1,1.59-3.35,1.59H284.35c4.23,1.59,5.57,2.52,5.18,4-.29,1.07-2,2-3.86,2.53s-2.57.66-4.47,4.78a121,121,0,0,1-16.62,26.83c15.6,7.7,27.39,20.19,24.9,29.48-1,3.72-3.76,6.12-6.42,6.12-2.12,0-4.16-1.33-5.43-4.52a60,60,0,0,0-18.71-24.84c-19.48,19.66-45.27,28.69-76.51,30.28h-2.12c-2.26,0-3.29-.13-3.18-.53s2.31-1.19,5.34-1.59c29.49-4,53.12-14.88,69.71-32.67a66.1,66.1,0,0,0-20.75-7.31c-2.15,3.59-4.11,6.91-5.92,9.7a11.21,11.21,0,0,1-9,4.65c-2.52,0-4.46-1.2-3.82-3.59a8.93,8.93,0,0,1,1.34-2.53A360.86,360.86,0,0,0,239.6,43.7c-8.8.13-23.12.53-33.2,1.46h-.13c-2.52,0-4.83-4.78-4.29-6.77l0-.14c11.16,1.46,29.52,1.86,39.44,2C250.29,23.64,257,9,259.05,1.33c.29-1.06.36-1.33.89-1.33,1.2,0,15.84,3.32,14.85,7-.32,1.2-2,2.12-4.34,2.79-3,.93-3.31,1.46-4.93,4.51l-14,26h44.76a3.73,3.73,0,0,0,2.18-1.2c.74-.79,8.37-9.43,10.89-9.43a1.65,1.65,0,0,1,.89.14C314.55,31.61,319.94,40.25,319.45,42.11ZM249.69,43.7c-5.49,10.09-11.47,21-16.81,30a88.27,88.27,0,0,1,23.69,4.78c3.4-4.25,12.79-17,16.92-32.41l.64-2.39Z"/><path d="M345.42,101.61c-19.28,0-21.09-11.76-19.54-17.53,2.32-8.67,12.56-17.64,23.75-22.42-4.85-2.69-4.8-8.27-3.14-14.45a127.31,127.31,0,0,1,4.76-13.15,59.76,59.76,0,0,0,2.2-6.27c1.06-4-.07-4.78-2.9-5.38-1.75-.4-2.44-.9-2.28-1.5.3-1.09,3.36-3.68,7-3.68,4.75,0,8.9,5.28,7.54,10.36A31,31,0,0,1,360,33.76c-2.62,4.79-5.75,10.67-7.13,15.85-.83,3.08-1.83,8,1.58,10.26,7.56-2.79,10.06-3.29,11.81-3.29,3.2,0,4.89,1.79,4.25,4.18-.94,3.49-5.71,6.28-11.28,6.28h-1.85c-7.12,0-23.55,5.48-26.24,15.54-1,3.69.16,10.16,12.54,10.16a38,38,0,0,0,14.13-2.69,11.54,11.54,0,0,1,4.06-.89c3.3,0,4.88,2.19,4.24,4.58C364.65,99.12,354.6,101.61,345.42,101.61Z"/><path d="M454,41.17c-.25.94-1.73,2-3.57,2.93-2.78,1.46-2.78.93-4,4.91l-1.07,4c-1.68,6.25-4,15.41-5.1,19.53-11.66,42.5-58.55,47-66.12,47-1.33,0-1.79-.27-1.72-.53s1.48-1.06,3.71-1.46c22-4.12,39.61-14.48,49.35-32-12.38,5.58-26.24,10.23-33.94,13.15-1.33.53-2.26,2-3.19,2-2.25,0-5.61-10.76-5.33-11.82,0,0,0-.13,1.23-.13h1.86c11.95,0,36.06-5.72,41.33-7a61.18,61.18,0,0,0,3.39-9.17h-6.38a219.81,219.81,0,0,0-24.39,1.33H400c-2.26,0-4.64-4.52-4.18-6.24l0-.14a279.92,279.92,0,0,0,29.95,1.73h6c.92-3.45,2.42-9,3.35-13H428c-6.11,0-16.67.27-26,1.2h-.13c-2.13,0-4.81-4.39-4.31-6.24l0-.14A276.88,276.88,0,0,0,429,52.86h6.9a107.12,107.12,0,0,0,2.46-15.14,3.35,3.35,0,0,1,.12-.93c.07-.26.24-.4.37-.4C443.24,36.39,454.68,38.79,454,41.17Zm60.77-30c-.29,1.06-1.6,2-3.44,2.92-2.75,1.33-3.29,1.86-4.46,6.24-1,3.72-1.78,8.1-2.69,13l-.11.4c-.85,3.19-4.7,4.65-7.09,4.65s-4.2-1.2-3.45-4l0-.13c.17-.66.49-1.33.66-2H420.83l-.57,2.12c-.75,2.79-4.49,4.39-7.28,4.39-2.39,0-4.23-1.07-3.52-3.73l.14-.53a156.34,156.34,0,0,0,5.9-18.06,90,90,0,0,0,1.93-13.15,2.32,2.32,0,0,1,.09-.8c.07-.26.07-.26.33-.26,1.2,0,9.44,3.45,12,5.58.14,0,.06.26.2.26h68A2.5,2.5,0,0,0,500,7.3c3.81-3.32,4.56-4.11,5.62-4.11C508.31,3.19,515.34,9.16,514.81,11.16Zm-70.76.4H428.64l-1.11.66c-1.88,1.06-1.95,1.33-3.37,6.64-.85,3.19-1.78,6.64-2.57,10.1h18.46C443.68,15.41,444,12.35,444.05,11.56Zm57.27,79.16c-.21.79-1.09,1.59-3.21,1.59H456.27c-2.28,9-4.32,17.14-5.34,21.92l0,.13c-.5,1.86-3.5,4.65-7.36,4.65-2.25,0-4.06-1.2-3.31-4l.07-.26c2.65-8.9,10.48-36.13,15.07-53.26,3.59-13.42,4.91-20.33,5-24a1.91,1.91,0,0,1,.08-.8c.11-.4.24-.4.77-.4,1.73,0,15.23,2.66,14.51,5.31-.25.93-1.56,1.86-3.23,2.66-3,1.33-3.62,1.59-5.43,8.37h19.39a3.46,3.46,0,0,0,2-1.06c1.52-1.73,7.68-7.84,9.4-7.84a1.48,1.48,0,0,1,.76.13c4.19,1.73,9.28,8.5,8.78,10.36-.25.93-1.12,1.73-3.38,1.73H466c-1.21,4-2.56,9-4,14.48h16.34a2.89,2.89,0,0,0,1.74-1.07c2.31-2.65,7.67-7.3,9-7.3,2.92,0,9.67,7,8.85,10.09-.21.8-1.09,1.6-3.08,1.6H461.12c-1.31,4.91-2.6,10.22-4,15.27h22a3.43,3.43,0,0,0,2-1.06c.2-.27,8.27-9,10.52-9a1.49,1.49,0,0,1,.76.13C496.06,80.62,502.07,87.93,501.32,90.72Zm-33-64.82c.53-2,3-11.29,3.31-14.34H456.53c.59.26.75.66.65,1.06-.22.8-1.49,1.59-3.06,2s-1.93,1.73-3.14,6.24c-.71,2.66-1.36,5.58-2,8.11h18.59Zm29.39-6.11c.57-2.12,1.14-4.25,1.65-6.64.25-.93-.37-1.59-1.43-1.59H484c.6.26.75.66.65,1.06-.22.8-1.49,1.59-2.93,2s-1.72,1.46-3.46,8c-.54,2-1.11,4.12-1.84,6.38h18.73C496.19,25.63,497,22.71,497.75,19.79Z"/><path d="M320.8,152.05q7.05,0,13.3-5.84t6.6-12.69q.45-8.66-8.21-8.66-6.64,0-12.9,6T313,143.39Q312.54,152,320.8,152.05Z"/><path d="M833.84,170.18q26.43-23.9,26.85-31.93c.13-2.34-.89-3.52-3-3.52q-6.84,0-14.42,10.07A75,75,0,0,0,831.49,169q-12.88,15.32-20.59,24l-17.15,19.74a7.71,7.71,0,0,0-3.58-.81q-11.49,0-23,14.3a55.61,55.61,0,0,0-11,20.77q-28.61,34.21-41.84,34.22-8.26,0-7.82-8.66.56-10.68,25.49-48.14l35-52.57a103.82,103.82,0,0,1-14.38,1.41,48.08,48.08,0,0,1-10.4-1.41l-21.49,33.43q-48.88,75.94-69.24,75.94-7.65,0-7.17-9.07.48-9.25,8.37-21.35l52.07-79A116.82,116.82,0,0,1,691,173.2a55.55,55.55,0,0,1-10.6-1.41L651.2,216.9c-.36.37-.75.81-1.17,1.31a79,79,0,0,1-20.86,20.28q-12.55,8.43-21.63,8.43a16.62,16.62,0,0,1-8.93-2.42q26.07-32.62,27.29-55.79,1-18.53-16.35-18.53-18.52,0-48.19,20.34-31.07,21.21-40.13,43.61-37.75,47-52.28,47-7.68,0-7.19-9.07.42-8.05,15.72-32.83T584.74,73.7a40.91,40.91,0,0,1-14.22,2.42,41.28,41.28,0,0,1-10.59-1.61Q532.62,119,493,179.64q-14,21.47-23.05,35.56h-.07c-.67,0-1.45.68-2.32,2q-19.77,27-38.49,45.49t-26.79,18.46q-7.86,0-7.37-9.47.53-9.87,20.68-40.89l38.74-59a93,93,0,0,1-14.17,1.41,46.72,46.72,0,0,1-10.6-1.41l-11.3,19.54a36,36,0,0,0,2.09-9.07q.63-12.07-11.86-12.08-14.7,0-39.37,13.29-39.24,20.84-52,46-15.66,18.3-29.25,29.77-17.15,14.49-43.86,29l20.31-33.84q35.58-56.4,53.07-82.58a105.67,105.67,0,0,1-15,1.41,39.49,39.49,0,0,1-9.4-1.41q-25.26,40.08-41.3,65.66l-38.53,62.64-2.9,1.41q-38.91,16.32-57.8,26.79-12.24,6.84-30.06,20.14Q89.89,372.79,88.67,396q-1,18.93,19.56,18.94,23,0,56.57-26.39,31.71-25,65.73-78.35l11.22-17.93q40.89-22.32,65.23-48.07c2.54-2.67,4.86-5.14,7-7.44a54.35,54.35,0,0,0-3,15.23q-.72,13.91,6,23.06t17.45,9.17q10.06,0,21.26-9.87t32.81-38.07q-7.11,12.69-7.68,23.57-.54,10.47,4.94,17.42a17.82,17.82,0,0,0,14.76,6.95q13.71,0,39-28.65,11-12.27,18.15-20.75c-1.19,2-2.12,3.59-2.78,4.78A49.68,49.68,0,0,0,448.64,261q-.52,10.07,4.68,16.61a16.81,16.81,0,0,0,13.87,6.55q16.51,0,51.9-43.67a48.23,48.23,0,0,0-1.55,9.83q-.74,13.91,7.31,23.87t20.14,10q23.38,0,52-37.67a23.57,23.57,0,0,0,11,2.42q14.91,0,33.58-17.67l1.1-1-2.08,3.21q-9.85,15.11-10.47,26.79-.52,10.08,5.15,17a18,18,0,0,0,14.54,6.95q8.46,0,18.41-9.07,9.08-8,28.85-31.82l4.32-5.44q-8.59,14.1-9,22A24.42,24.42,0,0,0,697.55,277a18.05,18.05,0,0,0,14.65,7.15q14.12,0,39.81-28.65c1.09-1.21,2.15-2.38,3.18-3.54-.17,1.2-.28,2.39-.35,3.59q-.68,13.1,7.07,20.84t21.45,7.76q24.17,0,42.49-13.3t19.27-31.42q.45-8.66-4.32-21.35-9.36-25.37-8.74-37.06A60.6,60.6,0,0,1,833.84,170.18ZM208.7,308q-39.43,60.62-58,80.36-22,23.57-43.13,23.56a16.6,16.6,0,0,1-11.86-4.33,13.19,13.19,0,0,1-4.27-10.77q1.26-24,44.87-53,16.08-10.68,75-39.88ZM386.55,235Q349.89,281.15,336,281.16q-11.69,0-11-13.09,1.17-22.37,33.19-58.62t50.54-36.25q9.06,0,8.54,9.87Q416.54,197.17,386.55,235ZM595,244.9q-27.66,35.85-49.41,35.85-13.29,0-12.57-13.89,1.26-24,29.48-59t46.55-35q14.7,0,13.85,16.31a38.5,38.5,0,0,1-4.05,15.71c-.66-2.68-2.07-4-4.21-4q-7.46,0-15.86,10.48t-8.92,20.34Q589.46,238.45,595,244.9Zm234.29-56.19q-.59,11.07-.49,17t-.23,12q-1.18,22.56-17.42,42.2T778,279.55a19.52,19.52,0,0,1-14.22-5.44,16.82,16.82,0,0,1-5.13-13.5q.39-7.44,6.48-14.2a26.84,26.84,0,0,1,14-8.56q19.75-4.23,20.38-16.11a9.39,9.39,0,0,0-3.42-7.86q22.71-26,34.74-40.28A119.61,119.61,0,0,0,829.25,188.71Z"/><path d="M973.29,215.4c-1.07,0-2.48,1.07-4.2,3.21q-49.43,62.14-81.28,62.14-18.75,0-17.84-17.32.72-13.89,15.51-34.64,44.78-8.86,64.24-19t20.22-24.68a12.62,12.62,0,0,0-4.57-10.57,17.73,17.73,0,0,0-12.17-4.33q-16.71,0-44.06,14.5-52,27.6-53.9,63.85-.81,15.3,8.24,25.48t23.15,10.17q29.83,0,74.26-51.49l9.24-10.86q3.87-4.62,3.9-5.23C974.07,215.93,973.82,215.53,973.29,215.4Zm-49.9-27.8q18.2-14.81,28.87-14.8,7.05,0,6.71,6.44-.63,12.09-21.49,25.68T887.24,226Q905.2,202.4,923.39,187.6Z"/><path d="M137.6,252.05c-14.35,0-29.7-4.7-45.53-13.36-14.36-7.92-27.23-11.88-39.6-11.88-15.84,0-30.94,6.43-47.77,19.8a5.92,5.92,0,0,1-3.46,1.48A1.18,1.18,0,0,1,0,246.85c0-3.71,27.22-33.16,61.38-33.16,13.61,0,28,4,43.31,12.13,13.86,7.42,26.23,11.13,37.86,11.13,16.34,0,31.68-7.17,49-21.53a6.22,6.22,0,0,1,3.46-1.73c.74,0,1.24.25,1.24,1C196.26,217.65,174.73,252.05,137.6,252.05Z"/><path d="M1141.35,252.05c-14.36,0-29.7-4.7-45.54-13.36-14.36-7.92-27.23-11.88-39.6-11.88-15.84,0-30.94,6.43-47.77,19.8a5.92,5.92,0,0,1-3.46,1.48,1.18,1.18,0,0,1-1.24-1.24c0-3.71,27.23-33.16,61.38-33.16,13.61,0,28,4,43.31,12.13,13.86,7.42,26.23,11.13,37.86,11.13,16.34,0,31.68-7.17,49-21.53a6.22,6.22,0,0,1,3.46-1.73c.75,0,1.24.25,1.24,1C1200,217.65,1178.47,252.05,1141.35,252.05Z"/><path d="M924.6,379.56c0,.61-7.65,2.46-11.7,6a2.27,2.27,0,0,1-1.58.71c-3.78,0-20.15-11.09-26.05-25.08v5.1c0,8.1.18,17,.35,21v.17c0,1.41-1.31,3.61-4.57,3.61-1.85,0-3.52-1-3.52-3.26v-.35c.35-4.31.44-12.5.53-19.71-17.25,18.13-37.31,20.59-37.31,20.59-.35,0-.53-.09-.53-.18s.62-.61,1.76-1.14c11.18-4.75,24.29-15.22,33.26-27.1h-2.46c-4.49,0-17.34.17-24.55,1h-.09c-1.5,0-4.14-3.44-4.14-4.58,8.28,1.14,24.47,1.41,29.13,1.41h4.93V356a42.18,42.18,0,0,0-1-9.86,7.14,7.14,0,0,1-.18-.7c0-.27.09-.27.44-.27,1.06,0,11.8,1.15,11.8,3.08,0,.62-.8,1.32-2,1.94-1.58.79-1.58.79-1.85,7.48h19.36a1.78,1.78,0,0,0,1.41-.79c.53-.88,4.05-6.34,5.28-6.34,2.29,0,8.45,6.34,8.45,8.27,0,.53-.36,1.06-1.76,1.06H886.33c6.69,8.71,20.5,17.33,37.66,19.45C924.43,379.38,924.6,379.38,924.6,379.56Zm-43-44.17c0,.52-.35,1-1.59,1H867.06c.09,4.14.26,8.63.53,12.94v.09c0,2-2,3.69-4.67,3.69-1.76,0-3.34-.88-3.34-3.08v-.35c.35-5,.44-9.41.53-13.29a104.39,104.39,0,0,0-13.11.88h-.09c-1.15,0-3.61-2.9-3.61-4.31a118.18,118.18,0,0,0,16.81,1.32v-4.66c-.09-3-.09-6.07-.36-8.1a93.24,93.24,0,0,0-9.76.71h-.09c-1.15,0-3.52-2.73-3.52-4.14a105.36,105.36,0,0,0,15.84,1.23h6.51a1.37,1.37,0,0,0,1-.7,20.55,20.55,0,0,1,3.34-4.14,1.48,1.48,0,0,1,.71-.26c.17,0,.26,0,.35.09,2.37,1.14,6.24,4.75,6.24,6.07,0,.62-.35,1.14-1.58,1.14H868.11l.62.18c.62.18.88.53.88.88s-.44.88-1.5,1.32c-.88.35-1.14.44-1.14,6.51,0,1.23.09,2.55.09,3.87h2.29a1.54,1.54,0,0,0,1-.79,22.5,22.5,0,0,1,3.61-4.58,1.48,1.48,0,0,1,.71-.26c.17,0,.26,0,.35.09C875.59,329,881.58,333.19,881.58,335.39Zm38.63-.09c0,.52-.36,1.05-1.67,1.05H902.78c.09,4.14.27,8.63.53,12.94v.09c0,2-2,3.69-4.66,3.69-1.76,0-3.35-.88-3.35-3.08v-.35q.53-7.51.53-13.2a99.66,99.66,0,0,0-10.38.79h-.09c-1.14,0-3.61-2.9-3.61-4.31a114.51,114.51,0,0,0,14.08,1.23c0-1.58-.09-3.16-.09-4.57-.09-2.9-.09-6.07-.35-8.1a71.55,71.55,0,0,0-8.62.71h-.09c-1.14,0-3.52-2.73-3.52-4.14a101.17,101.17,0,0,0,15.49,1.23h6.16a1.49,1.49,0,0,0,1.05-.7,21.76,21.76,0,0,1,3.43-4.22,1.42,1.42,0,0,1,.8-.27.51.51,0,0,1,.35.09c2.82,1.32,6.51,4.66,6.51,6.25,0,.53-.44,1.05-1.67,1.05H903.57c1.33.44,1.85.62,1.85,1.06s-.52.88-1.58,1.32-1.14,2.46-1.14,7.83v2.55h4.57a1.51,1.51,0,0,0,1.06-.79c.52-1,3.16-4.93,4.49-4.93S920.21,333.71,920.21,335.3Z"/><path d="M971,350.7c0,2.55-1.67,4.31-3.43,4.31-1.59,0-2.82-.71-3.79-5.37-1.14.44-2.37.79-3.78,1.23.62.27,1,.62,1,1s-.27.79-1,1.15c-1.06.61-1.15.87-1.15,8.62s.27,18.48.44,24.46v.18c0,1.84-1.75,3.43-4.13,3.43a2.72,2.72,0,0,1-2.9-2.91v-.44c.7-8.71.7-16.8.7-22.43a4.13,4.13,0,0,1-1.5.61c-1.23.26-1.4.71-1.84,1.85-5.2,12.76-10.83,18.65-11.36,18.65a.28.28,0,0,1-.08-.17,4.24,4.24,0,0,1,.44-1.32c2.72-6.16,5.36-17.51,5.36-23.94,0-.87.18-.87.18-.87,1.58,0,7.92,2.55,8.8,3.42V362c0-2.64,0-6-.18-8.89l-6.6,1.94c-.88.26-1.23,1.14-1.84,1.14-1.41,0-4.67-7.13-4.67-8.09,0-.18.09-.27.18-.27s.35.09.61.09a60.9,60.9,0,0,0,7,.53h1.68c5.54-9.15,11.7-21.56,12.05-26.05.09-.7,0-.88.18-.88s9.32,3.61,9.32,5.9c0,.61-.7,1.14-2.28,1.23a2.54,2.54,0,0,0-1.94,1.23,226.8,226.8,0,0,1-15,18.48c4-.09,8.36-.35,11.71-.61a35.12,35.12,0,0,0-2.64-6.08,3.28,3.28,0,0,1-.53-1.14c0-.09.09-.09.17-.09C961.38,340.4,971,344.45,971,350.7Zm-9.42-34c0,.53-.61,1.14-2.2,1.32-1.05.09-1.32.44-1.84,1.32a115.4,115.4,0,0,1-7.66,11.09c4,1.85,4.13,4.93,4.13,5.45,0,2.12-1.49,3.88-3.25,3.88-1.14,0-2.46-.8-3.43-2.64a25.54,25.54,0,0,0-5.55-7.31c-.61-.52-.88-.79-.88-1s.18-.26.71-.26a21.85,21.85,0,0,1,6.33,1.06c3.79-11.71,4-14.7,4-16.11,0-.44-.09-.79-.09-1.14v-.53c0-.26,0-.35.18-.35C953.19,311.54,961.55,315,961.55,316.73Zm7.66,50c0,2.47-1.76,4.23-3.43,4.23-1.32,0-2.64-1.06-3.08-3.53-.71-3.43-1.59-7.39-3-10a4.39,4.39,0,0,1-.52-1.23.08.08,0,0,1,.08-.08C959.79,356.07,969.21,360.38,969.21,366.71Zm48.39-12.85c0,.71-.79,1.24-1.67,1.85-1,.62-1,.62-1,7.31,0,5.54,0,14.43.08,15.57.09,1.32.18,2.11.18,3.61,0,4-4,7.13-7.65,7.13a1.46,1.46,0,0,1-1.5-1,16,16,0,0,0-3.17-3.52,3.53,3.53,0,0,1-2.9,1.49c-1.24,0-2.2-.61-2.2-2.37v-.35c.26-3.52.26-9.86.26-15h-4.57c0,5.81.17,12.14.35,14.43v.17c0,2-2.29,3.08-3.44,3.08a2.08,2.08,0,0,1-2.19-2.37v-.35c.26-3.52.35-9.86.35-15h-4.75V387.3c0,1.85-2,3.08-3.79,3.08a2.52,2.52,0,0,1-2.73-2.64v-.26c.36-4.75,1.06-22.62,1.15-28.16v-1.05c-4.05,19.88-15.84,26.57-17.16,26.57a.23.23,0,0,1-.26-.26c0-.27.35-.8,1.14-1.59,9.24-9.15,11.44-25.87,11.44-42v-3.08a78.32,78.32,0,0,0-1.15-11.62,1.2,1.2,0,0,1-.08-.53c0-.17.08-.26.35-.26a37.92,37.92,0,0,1,9.42,4.05l.26.18h20.77c.61,0,1-.62,1.23-.89,2-2.9,2.64-3,2.9-3,1.58,0,7.3,3.88,7.3,5.81,0,.79-.7,1.41-2.11,2.11-1,.44-1.23.88-1.23,2.82,0,1.76.44,5.45.62,7.21v.35c0,2.47-2.64,3.35-4.23,3.35a2.81,2.81,0,0,1-3.08-2.9v-.18l.09-.53H979.94l-.26,4.93a35.54,35.54,0,0,1,5.81,2.9l.35.27h21.73c.44,0,.71-.27,1.06-.71,1.41-2.37,2.11-2.37,2.2-2.37C1011.62,348.94,1017.6,352,1017.6,353.86Zm1-33.26c0,.53-.35,1.06-1.76,1.06H992.7c-4.57,0-13.64.18-20.85.88h-.09c-1.5,0-4-3.43-4-4.49A227.52,227.52,0,0,0,993,319.46h11.45a1.78,1.78,0,0,0,1.4-.79c1.06-1.67,2.2-4.05,3.7-5.37a1.38,1.38,0,0,1,.79-.26C1012,313,1018.57,318.14,1018.57,320.6ZM1003.26,332H982a2.06,2.06,0,0,0-.53.44c-1.06.7-1.15.61-1.23,3.34,0,1.67-.09,3.78-.18,6h24.55c.09-1.85.09-4.13.09-6.07v-2.29C1004.67,332.31,1004.23,332,1003.26,332Zm-14.87,30.09c0-6.51,0-7.22-.09-7.75H985c-1.06.53-1.14.71-1.23,2.64v9.42h4.75C988.48,364.6,988.39,363.1,988.39,362.05Zm9.59,0c0-6.51,0-7.22-.09-7.75H994l.62.27a.65.65,0,0,1,.53.61,1.29,1.29,0,0,1-.8,1.06c-1,.62-1,.62-1,10.12H998Zm10.82-6.6c0-.88-.35-1.15-1-1.15h-4.14l.53.27a.73.73,0,0,1,.62.7c0,.36-.27.71-.8,1-.79.35-1,.62-1,1.58v8.54h5.89C1008.89,361.52,1008.8,356.86,1008.8,355.45Zm-5.8,13.2c0,5.45.09,11.44.26,14a16.29,16.29,0,0,0,2.64.35c1.67,0,2.82-.62,2.9-2.46.09-1.59.09-6.6.09-11.88Z"/></svg>